<svg xmlns="http://www.w3.org/2000/svg" viewBox="0 0 24 24">
  <defs/>
  <path d="M15.2 19.4l.6-1s-1.5.5-3.9.5-3.8-.5-3.8-.5l.7 1.2.3 3.7c0 .4 1.3.7 2.9.7 1.6 0 3-.3 3-.7l.2-3.9zm.6-7c-.8 0-1.2.9-1.6 1.8-.1.3-.6 1.7-1 1.6-.2-.2.5-1.4.7-2-.2.1-1.1.8-1.3.2-.4.3-1.2.4-1-.4-.3.4-.7.8-1.2.6-.7-.2.4-2.4.7-2.3.2.2-.1.6-.2.8-.2.4-.4 1-.2 1 .2.3.9-.6.9-.6.1-.2.5-1.3.7-1.1.3.1-.7 1.5-.3 1.8 0 0 .4 0 .6-.3 0 0 0-.4.5-1.3.4-1 .7-2.2 1-2.1s0 .7 0 1c-.5 1-1.3 2.8-1 2.7.4-.2.6-.2 1-.6.4-.4.3-1.2.6-1.1.2 0 .2.2.1.4.3-.3 1.2-.9 1.4-.3.3.7-1.3 1.7-1 1.6.5 0 1-.4 1.3-.8l.8-6.5s-.8.6-5.4.6-5.3-.6-5.3-.6l.6 6c.4-1 1.1-2.8 2.4-2.8.5 0 1.3 1.1.6 1.2-.3 0-.3-.6-.6-.6-.2 0-.6 0-.8.3-.4.4-1.3 2-1.1 2.8.1 1 1.4-.3 1.6-.7.1-.3.2-1.2.5-1.1.4 0 0 1-.2 1.7-.3 1-.4 1.8-.8 1.7-.3 0 .2-1.2.2-1.4-.3.3-.9 1-1.6.7l.4 3.7s1 .7 4 .7S16 18 16 18l.4-4.3c-.4.4-1.6 1-1.7.3 0-.6 1.4-1.5 1-1.5v-.1zM17.3.7l-2.6 2.8-.5 1.9c1.9 0 3.2.4 3.2.7 0 .4-2.4.7-5.4.7s-5.4-.3-5.4-.7c0-.5 2.4-.8 5.4-.8h1.3l.5-2.3 2.8-3c.1 0 .3 0 .5.2.2.1.3.3.3.4zm-3.8 5.8l-.6-.1v-.1-.1h.1c0 .1.3.2.5.1h.5v-.1l.2.1-.3.1h-.4z"/>
</svg>
