<svg xmlns="http://www.w3.org/2000/svg" viewBox="0 0 512 512">
  <defs/>
  <path fill="#f0db4f" d="M26 26h460v460H26z"/>
  <path fill="#323330" d="M276.3 384.8c0 44.7-26.3 65.2-64.6 65.2-34.6 0-54.6-18-64.8-39.6l35.2-21.2c6.7 12 13 22.2 27.8 22.2 14.2 0 23.2-5.6 23.2-27.3V237.2h43.2v147.6zM378.6 450c-40.1 0-66.1-19.1-78.8-44.2l35.3-20.3c9.2 15 21.3 26.3 42.6 26.3 17.8 0 29.3-9 29.3-21.4 0-14.8-11.7-20-31.5-28.7l-10.8-4.7c-31.2-13.2-51.8-30-51.8-65.2 0-32.4 24.7-57 63.2-57 27.5 0 47.3 9.5 61.4 34.5L404 291c-7.4-13.2-15.4-18.5-27.9-18.5-12.6 0-20.6 8-20.6 18.5 0 13 8 18.2 26.6 26.3l10.8 4.6c36.7 15.7 57.4 31.8 57.4 68 0 38.8-30.6 60.2-71.6 60.2z"/>
</svg>
