<svg xmlns="http://www.w3.org/2000/svg" viewBox="0 0 512 512">
  <defs/>
  <path d="M422 281.8c-16 0-30 4-41.7 9.7-4.2-8.6-8.6-16-9.3-21.6-.9-6.6-1.8-10.5-.8-18.2 1-7.8 5.5-18.8 5.5-19.6-.1-.7-1-4.7-10.3-4.8-9.3 0-17.3 1.8-18.2 4.3-1 2.4-2.7 8-3.8 13.7-1.7 8.4-18.5 38.4-28.1 54.1a55.8 55.8 0 01-6.4-15.8c-.9-6.6-1.8-10.4-.8-18.2 1-7.8 5.6-18.7 5.5-19.5 0-.8-1-4.8-10.3-4.8-9.3-.1-17.2 1.7-18.2 4.2-1 2.4-2 8.2-3.8 13.7a2800 2800 0 01-30.2 68.6c-3 6.6-5.6 11.9-7.5 15.5l-.7 1.2.4-.6a257 257 0 01-2.5 4.8v.1c-1.2 2.3-2.6 4.4-3.2 4.4-.5 0-1.4-6 .2-14.3 3.4-17.4 11.3-44.4 11.3-45.3-.1-.5 1.5-5.2-5.3-7.7-6.5-2.4-8.9 1.6-9.5 1.6s-1 1.4-1 1.4 7.3-30.5-14-30.5c-13.1 0-31.5 14.5-40.6 27.7-5.7 3-18 9.8-30.9 16.9L133 311l-1-1.1c-25.7-27.5-73.2-46.9-71.2-83.7.7-13.5 5.4-48.7 91.4-91.6 70.4-35 126.7-25.4 136.4-4 14 30.6-30.1 87.4-103.3 95.6-27.8 3-42.5-7.7-46.2-11.7-3.8-4.3-4.3-4.5-5.8-3.7-2.3 1.3-.8 5 0 7.3 2.2 5.6 11.2 15.7 26.5 20.7 13.4 4.4 46.1 6.9 85.6-8.5 44.4-17 79-64.7 68.9-104.6C303.8 85.2 236.6 72 173 94.5c-37.8 13.4-78.8 34.5-108.3 62-35 32.8-40.5 61.3-38.3 73.3 8.2 42.3 66.6 69.9 90 90.3l-3.3 1.8c-11.7 5.8-56.2 29-67.3 53.7-12.6 27.8 2 47.8 11.7 50.6 30 8.3 60.8-6.7 77.3-31.4 16.5-24.6 14.5-56.8 7-71.5l-.4-.5a1036.3 1036.3 0 0126.1-15c-2.9 7.8-5 17.1-6 30.6-1.3 15.8 5.2 36.3 13.7 44.3 3.7 3.6 8.3 3.6 11 3.6 10 0 14.4-8.1 19.4-18 6-11.9 11.5-25.7 11.5-25.7s-6.8 37.5 11.7 37.5c6.7 0 13.5-8.7 16.5-13.2v.1l.5-.8 1.1-1.8v-.2c2.7-4.7 8.7-15.4 17.7-33 11.6-22.9 22.8-51.4 22.8-51.4s1 7 4.4 18.5c2 6.8 6.3 14.3 9.6 21.6l-4.3 5.9v.1c-2.1 2.9-4.6 6-7 9-9.3 11-20.2 23.4-21.6 27-1.8 4.3-1.3 7.4 2 9.9 2.4 1.8 6.7 2.1 11.2 1.8 8.3-.6 14.1-2.6 17-4a59 59 0 0014.4-7.5c9-6.7 14.5-16.1 14-28.6a59.5 59.5 0 00-5.3-20.3l2.5-3.6c14.2-20.8 25.2-43.5 25.2-43.5s1 7 4.5 18.5c1.7 5.8 5 12.2 8.2 18.5a79 79 0 00-24.6 31.7c-5.3 15.3-1.1 22.2 6.7 23.7 3.6.8 8.6-.9 12.3-2.5a57 57 0 0015.5-8c9-6.6 17.7-15.8 17.1-28.4a53.5 53.5 0 00-3.8-16.8c11.2-4.8 25.9-7.4 44.6-5.2 40 4.7 47.8 29.7 46.3 40.1a26.4 26.4 0 01-12.7 18c-2.8 1.7-3.7 2.3-3.4 3.6.3 1.9 1.6 1.8 4 1.4 3.3-.6 21-8.5 21.8-27.8 1.1-24.4-22.4-51.3-64-51.1zm-308.5 104c-13.2 14.4-31.7 19.9-39.7 15.3-8.5-5-5.2-26.3 11.1-41.6a213 213 0 0131.2-23.3l8.2-5 .9-.5 2-1.2c6 21.8.3 41.1-13.7 56.3zm96.6-65.7c-4.6 11.3-14.3 40-20.2 38.5-5-1.3-8.1-23.2-1-44.8a99 99 0 0115.8-28.8c7.2-8 15.2-10.7 17-7.4 2.6 4.2-8.7 35.4-11.6 42.5zm79.8 38c-2 1-3.8 1.7-4.6 1.2-.7-.3.8-1.7.8-1.7s10-10.7 13.9-15.6c2.3-2.9 5-6.2 7.8-10l.1 1.2c0 12.8-12.4 21.5-18 25zm61.5-14c-1.5-1-1.2-4.3 3.6-14.8a56 56 0 0113.6-17.6 26 26 0 011.4 7.7c0 16.2-11.7 22.2-18.6 24.8z"/>
</svg>
