<svg xmlns="http://www.w3.org/2000/svg" fill-rule="evenodd" stroke-linejoin="round" stroke-miterlimit="2" clip-rule="evenodd" viewBox="0 0 512 512">
  <defs/>
  <path fill="url(#_Linear1)" fill-rule="nonzero" d="M116.2 0c-11.2.5-26 1.5-32.7 3a103.2 103.2 0 00-52.8 27.2A103.2 103.2 0 003.1 83.4C1.5 90.2.5 105 .5 116.3 0 120.8 0 127 0 130v265.8c.5 11.2 1.5 26 3 32.7a103.2 103.2 0 0027.2 52.8 103.2 103.2 0 0053.2 27.6c6.7 1.6 21.6 2.6 32.8 2.6 4.6.5 10.8.5 13.8.5h265.8c11.2-.5 26-1.5 32.7-3a103.2 103.2 0 0052.8-27.2 103.2 103.2 0 0027.6-53.2c1.6-6.7 2.6-21.6 2.6-32.8.5-4.6.5-10.8.5-13.8V116.2c-.5-11.2-1.5-26-3-32.7a103.2 103.2 0 00-27.2-52.8 103.2 103.2 0 00-53.2-27.6C421.8 1.5 407 .5 395.7.5 391.2 0 385 0 382 0H116.2z"/>
  <path fill="#fff" d="M344.8 289.7c-4.6-2.3-27-13.3-31.2-14.8-4.2-1.6-7.2-2.3-10.3 2.2-3 4.6-11.7 14.9-14.4 18-2.7 3-5.3 3.3-9.9 1-4.5-2.2-19.2-7-36.7-22.6-13.5-12-22.7-27-25.3-31.5-2.7-4.6-.3-7 2-9.3 2-2 4.5-5.4 6.8-8 2.3-2.7 3-4.6 4.6-7.6 1.5-3 .7-5.7-.4-8s-10.3-24.7-14-33.9c-3.8-8.9-7.5-7.7-10.3-7.8a183 183 0 00-8.8-.2c-3 0-8 1.2-12.1 5.7-4.2 4.6-16 15.6-16 38 0 22.5 16.4 44.2 18.6 47.2 2.3 3 32.2 49.1 78 68.9 10.8 4.7 19.3 7.5 26 9.6 10.9 3.4 20.8 3 28.7 1.8 8.7-1.3 27-11 30.7-21.7 3.8-10.6 3.8-19.8 2.7-21.7-1.1-1.9-4.2-3-8.7-5.3m-83.3 113.6c-27.2 0-54-7.3-77.2-21.2l-5.6-3.3-57.4 15.1 15.4-56-3.7-5.7a151.9 151.9 0 01235.8-187.9 151.9 151.9 0 01-107.3 259m129.1-280.7a182.7 182.7 0 00-287.3 220.1l-25.8 94.5 96.8-25.3a182.7 182.7 0 00216.4-289.3"/>
  <defs>
    <linearGradient id="_Linear1" x1="0" x2="1" y1="0" y2="0" gradientTransform="matrix(0 -512 -512 0 256 512)" gradientUnits="userSpaceOnUse">
      <stop offset="0" stop-color="#25cf43"/>
      <stop offset="1" stop-color="#61fd7d"/>
    </linearGradient>
  </defs>
</svg>
